<?xml version="1.0" encoding="UTF-8"?>
<svg version="1.1" xmlns="http://www.w3.org/2000/svg" width="200" height="200">
<path d="M0 0 C66 0 132 0 200 0 C200 66 200 132 200 200 C134 200 68 200 0 200 C0 134 0 68 0 0 Z " fill="#FEFEFE" transform="translate(0,0)"/>
<path d="M0 0 C12.46573595 0.0490777 21.87958707 5.04651574 30.80859375 13.57421875 C36.91073283 20.32899302 42.13855787 29.20099495 42.1875 38.5 C42.0946875 40.2325 42.0946875 40.2325 42 42 C30.75262177 41.77505244 20.10303621 35.16166901 12.1875 27.51953125 C5.65150804 19.99146909 0 10.17001334 0 0 Z " fill="#05534B" transform="translate(102,56)"/>
<path d="M0 0 C-0.28876358 11.86555796 -4.35719513 21.27663217 -12.6015625 29.80859375 C-21.39789611 37.84563472 -30.16026274 41.37910962 -42 42 C-41.78410969 31.20548469 -35.58837045 20.60698514 -28.2265625 12.9609375 C-20.6830487 6.31735166 -10.39004999 -0.45892447 0 0 Z " fill="#05534B" transform="translate(144,102)"/>
<path d="M0 0 C1.8871875 0.0309375 1.8871875 0.0309375 3.8125 0.0625 C3.04962558 11.25132483 -2.38980245 21.18523411 -10.1875 29.0625 C-18.42317637 36.18857926 -27.2442985 41.11091726 -38.1875 42.0625 C-39.12044958 32.35982437 -34.99338826 23.38853627 -28.90234375 15.93359375 C-21.48550095 7.84095662 -11.57356866 -0.18973063 0 0 Z " fill="#05534B" transform="translate(94.1875,55.9375)"/>
<path d="M0 0 C12.12145631 1.55540811 22.79862121 6.86808016 31 16 C36.62245924 23.44083395 42.42497572 32.37854963 42 42 C29.53709501 41.95093344 20.1127238 36.95655439 11.19140625 28.421875 C4.94935646 21.52335295 -0.1302184 12.44624635 -0.1875 2.9375 C-0.125625 1.968125 -0.06375 0.99875 0 0 Z " fill="#04524A" transform="translate(56,102)"/>
<path d="M0 0 C4.10845914 2.30948887 6.90955377 5.09420142 8.8125 9.4375 C9.89978101 14.84254119 8.34495113 18.68915412 5.8125 23.4375 C4.98105469 23.01597656 4.14960937 22.59445313 3.29296875 22.16015625 C2.20628906 21.61230469 1.11960937 21.06445312 0 20.5 C-1.07894531 19.95472656 -2.15789062 19.40945312 -3.26953125 18.84765625 C-7.9130176 16.60361532 -11.24480323 16.32793397 -16.375 16.375 C-17.64730469 16.38402344 -18.91960937 16.39304687 -20.23046875 16.40234375 C-21.20628906 16.41394531 -22.18210937 16.42554687 -23.1875 16.4375 C-23.50607851 10.30301156 -22.65134577 7.77513267 -18.82421875 3.171875 C-13.39434562 -2.58197624 -7.05042741 -3.08622483 0 0 Z " fill="#F06D46" transform="translate(107.1875,85.5625)"/>
<path d="M0 0 C6.63141145 -0.54133971 10.54143747 0.10102677 16 4 C16.99 5.485 16.99 5.485 18 7 C15.525 6.505 15.525 6.505 13 6 C13 6.66 13 7.32 13 8 C9.28111761 7.49287967 6.26545761 6.88391785 3 5 C3 4.34 3 3.68 3 3 C2.01 2.67 1.02 2.34 0 2 C0 1.34 0 0.68 0 0 Z " fill="#FCF8EC" transform="translate(87,108)"/>
<path d="M0 0 C7.37458162 -0.50587831 13.35184479 -0.91429848 19.4765625 3.62109375 C21.28129108 5.25460449 22.75665069 6.90184804 24 9 C19.72159739 9 18.17965543 6.71595568 15 4 C11.83754459 2.9458482 9.13051782 2.68724328 5.8125 2.4375 C4.18248047 2.31181641 4.18248047 2.31181641 2.51953125 2.18359375 C1.68808594 2.12300781 0.85664062 2.06242187 0 2 C0 1.34 0 0.68 0 0 Z " fill="#F2C96E" transform="translate(85,104)"/>
<path d="M0 0 C13.02859944 -0.56921066 13.02859944 -0.56921066 18 3 C19.875 5.1875 19.875 5.1875 21 7 C18 7 18 7 14.875 5.0625 C11.25025574 2.85983025 8.1108454 2.46107053 3.91796875 2.2734375 C2 2 2 2 0 0 Z " fill="#FCFAF0" transform="translate(85,106)"/>
<path d="M0 0 C6.63141145 -0.54133971 10.54143747 0.10102677 16 4 C16.99 5.485 16.99 5.485 18 7 C15.41407058 6.50270588 13.58813446 5.77534607 11.25 4.5 C7.35043941 2.7002028 4.259715 2.36721681 0 2 C0 1.34 0 0.68 0 0 Z " fill="#F3CA6E" transform="translate(87,108)"/>
<path d="M0 0 C2.475 0.495 2.475 0.495 5 1 C4.01 1.33 3.02 1.66 2 2 C2 3.98 2 5.96 2 8 C1.34 7.67 0.68 7.34 0 7 C0 4.69 0 2.38 0 0 Z " fill="#165B54" transform="translate(56,102)"/>
<path d="M0 0 C5.53846154 0.61538462 5.53846154 0.61538462 7.875 2.5625 C8.431875 3.2740625 8.431875 3.2740625 9 4 C3.46153846 3.38461538 3.46153846 3.38461538 1.125 1.4375 C0.75375 0.963125 0.3825 0.48875 0 0 Z " fill="#F3CE7A" transform="translate(91,112)"/>
</svg>
